<?xml version="1.0" encoding="UTF-8"?>
<svg id="Capa_1" data-name="Capa 1" xmlns="http://www.w3.org/2000/svg" viewBox="0 0 162.89 183.21">
  <defs>
    <style>
      .cls-1 {
        fill: #575756;
        stroke-width: 0px;
      }
    </style>
  </defs>
  <g id="_1078_Commerce_e_open_signboard" data-name="1078, Commerce, e, open, signboard">
    <g>
      <polygon class="cls-1" points="102.03 97.39 102.03 109.52 99.77 109.52 94.22 102.53 94.22 109.52 91.34 109.52 91.34 97.39 93.6 97.39 99.36 104.58 99.36 97.39 102.03 97.39"/>
      <polygon class="cls-1" points="80.86 109.52 80.86 97.39 89.49 97.39 89.49 99.86 83.74 99.86 83.74 102.12 88.67 102.12 88.67 104.58 83.74 104.58 83.74 107.05 89.49 107.05 89.49 109.52 80.86 109.52"/>
      <path class="cls-1" d="M75.72,99.86h-2.67v3.29h2.26c.41,0,.62-.2.82-.41.62-.62.62-2.47-.41-2.88ZM75.52,105.61h-2.47v3.9h-2.88v-12.33h5.14c1.23,0,2.06.41,2.88,1.23,2.67,2.88.82,7.19-2.67,7.19Z"/>
      <path class="cls-1" d="M62.78,99.86c-.41,0-1.03.2-1.23.41-2.67,1.65-2.06,6.99,1.23,6.99.41,0,1.03-.2,1.23-.41,2.67-1.64,2.06-6.99-1.23-6.99ZM65.04,109.11c-1.44.62-3.29.62-4.73,0-2.26-1.03-3.49-3.49-3.49-5.76s1.23-4.52,3.49-5.75c1.44-.62,3.29-.62,4.73,0,1.44.82,2.46,2.06,3.08,3.49,1.03,2.47-.21,6.58-3.08,8.02Z"/>
      <path class="cls-1" d="M129.57,67.38c-.41,0-1.03-.2-1.44-.41l-42.13-29.39c-1.23-.82-1.44-2.46-.62-3.49.82-1.23,2.47-1.44,3.49-.62l42.13,29.39c1.23.82,1.44,2.46.62,3.49-.41.62-1.23,1.03-2.06,1.03Z"/>
      <path class="cls-1" d="M32.15,67.38c-.82,0-1.65-.41-2.06-1.03-.82-1.23-.62-2.67.62-3.49l42.13-29.39c1.23-.82,2.67-.62,3.49.62.82,1.23.62,2.67-.62,3.49l-42.13,29.39c-.62.2-1.03.41-1.44.41Z"/>
      <path class="cls-1" d="M140.05,144.45H21.88c-1.44,0-2.67-1.23-2.67-2.67v-76.86c0-1.44,1.23-2.67,2.67-2.67h118.17c1.44,0,2.67,1.23,2.67,2.67v77.07c-.21,1.23-1.44,2.46-2.67,2.46ZM24.34,139.32h113.04v-71.93H24.34v71.93Z"/>
      <path class="cls-1" d="M80.86,41.69c-3.7,0-6.99-1.85-8.84-4.93-.82-1.64-1.44-3.49-1.44-5.34,0-5.75,4.52-10.28,10.28-10.28s10.28,4.52,10.28,10.28c0,1.85-.62,3.7-1.44,5.34-1.85,3.08-5.14,4.93-8.84,4.93ZM80.86,26.28c-2.88,0-5.14,2.26-5.14,5.14,0,1.03.21,1.85.82,2.67,1.03,1.64,2.67,2.46,4.32,2.46s3.49-.82,4.32-2.46c.41-.82.82-1.65.82-2.67,0-2.88-2.26-5.14-5.14-5.14Z"/>
      <path class="cls-1" d="M91.14,82.8H21.88c-1.44,0-2.67-1.23-2.67-2.67s1.23-2.67,2.67-2.67h69.26c1.44,0,2.67,1.23,2.67,2.67s-1.23,2.67-2.67,2.67Z"/>
      <path class="cls-1" d="M140.05,129.04h-69.47c-1.44,0-2.67-1.23-2.67-2.67s1.23-2.67,2.67-2.67h69.47c1.44,0,2.67,1.23,2.67,2.67-.21,1.44-1.44,2.67-2.67,2.67Z"/>
    </g>
  </g>
</svg>